<svg xmlns="http://www.w3.org/2000/svg" xmlns:xlink="http://www.w3.org/1999/xlink" width="530" zoomAndPan="magnify" viewBox="0 0 397.5 74.999997" height="100" preserveAspectRatio="xMidYMid meet" version="1.0"><defs><g/></defs><g fill="#d8762a" fill-opacity="1"><g transform="translate(85.403074, 57.350027)"><g><path d="M 23.9375 1.140625 C 20.78125 1.140625 17.898438 0.617188 15.296875 -0.421875 C 12.703125 -1.472656 10.453125 -2.9375 8.546875 -4.8125 C 6.648438 -6.695312 5.175781 -8.921875 4.125 -11.484375 C 3.082031 -14.046875 2.5625 -16.867188 2.5625 -19.953125 C 2.5625 -23.023438 3.082031 -25.84375 4.125 -28.40625 C 5.175781 -30.976562 6.648438 -33.203125 8.546875 -35.078125 C 10.453125 -36.960938 12.703125 -38.425781 15.296875 -39.46875 C 17.898438 -40.519531 20.78125 -41.046875 23.9375 -41.046875 C 27.050781 -41.046875 29.921875 -40.519531 32.546875 -39.46875 C 35.171875 -38.425781 37.429688 -36.960938 39.328125 -35.078125 C 41.234375 -33.203125 42.707031 -30.976562 43.75 -28.40625 C 44.789062 -25.84375 45.3125 -23.023438 45.3125 -19.953125 C 45.3125 -16.867188 44.789062 -14.046875 43.75 -11.484375 C 42.707031 -8.921875 41.234375 -6.695312 39.328125 -4.8125 C 37.429688 -2.9375 35.171875 -1.472656 32.546875 -0.421875 C 29.921875 0.617188 27.050781 1.140625 23.9375 1.140625 Z M 23.9375 -5.703125 C 25.800781 -5.703125 27.53125 -6.039062 29.125 -6.71875 C 30.71875 -7.40625 32.101562 -8.375 33.28125 -9.625 C 34.46875 -10.882812 35.390625 -12.390625 36.046875 -14.140625 C 36.710938 -15.890625 37.046875 -17.828125 37.046875 -19.953125 C 37.046875 -22.078125 36.710938 -24.015625 36.046875 -25.765625 C 35.390625 -27.515625 34.46875 -29.015625 33.28125 -30.265625 C 32.101562 -31.515625 30.71875 -32.484375 29.125 -33.171875 C 27.53125 -33.859375 25.800781 -34.203125 23.9375 -34.203125 C 22.070312 -34.203125 20.34375 -33.859375 18.75 -33.171875 C 17.15625 -32.484375 15.769531 -31.515625 14.59375 -30.265625 C 13.414062 -29.015625 12.492188 -27.515625 11.828125 -25.765625 C 11.160156 -24.015625 10.828125 -22.078125 10.828125 -19.953125 C 10.828125 -17.828125 11.160156 -15.890625 11.828125 -14.140625 C 12.492188 -12.390625 13.414062 -10.882812 14.59375 -9.625 C 15.769531 -8.375 17.15625 -7.40625 18.75 -6.71875 C 20.34375 -6.039062 22.070312 -5.703125 23.9375 -5.703125 Z M 23.9375 -5.703125 "/></g></g></g><g fill="#d8762a" fill-opacity="1"><g transform="translate(130.479089, 57.350027)"><g><path d="M 4.28125 -27.078125 C 5.34375 -27.535156 6.5 -27.953125 7.75 -28.328125 C 8.8125 -28.628906 10.046875 -28.921875 11.453125 -29.203125 C 12.859375 -29.492188 14.359375 -29.640625 15.953125 -29.640625 C 17.328125 -29.640625 18.601562 -29.523438 19.78125 -29.296875 C 20.957031 -29.066406 21.984375 -28.800781 22.859375 -28.5 C 23.847656 -28.15625 24.78125 -27.773438 25.65625 -27.359375 L 23.65625 -21.65625 C 23.082031 -21.957031 22.4375 -22.242188 21.71875 -22.515625 C 21.070312 -22.703125 20.3125 -22.890625 19.4375 -23.078125 C 18.5625 -23.273438 17.59375 -23.375 16.53125 -23.375 C 15.882812 -23.375 15.273438 -23.320312 14.703125 -23.21875 C 14.128906 -23.125 13.617188 -23.019531 13.171875 -22.90625 C 12.640625 -22.757812 12.144531 -22.628906 11.6875 -22.515625 L 11.6875 0 L 4.28125 0 Z M 4.28125 -27.078125 "/></g></g></g><g fill="#356cb7" fill-opacity="1"><g transform="translate(153.906746, 57.350027)"><g><path d="M 24.515625 1.140625 C 21.242188 1.140625 18.257812 0.617188 15.5625 -0.421875 C 12.863281 -1.472656 10.550781 -2.9375 8.625 -4.8125 C 6.707031 -6.695312 5.21875 -8.921875 4.15625 -11.484375 C 3.09375 -14.046875 2.5625 -16.867188 2.5625 -19.953125 C 2.5625 -23.023438 3.09375 -25.84375 4.15625 -28.40625 C 5.21875 -30.976562 6.707031 -33.203125 8.625 -35.078125 C 10.550781 -36.960938 12.863281 -38.425781 15.5625 -39.46875 C 18.257812 -40.519531 21.242188 -41.046875 24.515625 -41.046875 C 26.566406 -41.046875 28.414062 -40.832031 30.0625 -40.40625 C 31.71875 -39.988281 33.132812 -39.535156 34.3125 -39.046875 C 35.675781 -38.441406 36.875 -37.773438 37.90625 -37.046875 L 34.484375 -31.640625 C 33.648438 -32.085938 32.738281 -32.503906 31.75 -32.890625 C 30.875 -33.191406 29.875 -33.484375 28.75 -33.765625 C 27.632812 -34.054688 26.410156 -34.203125 25.078125 -34.203125 C 22.953125 -34.203125 21.015625 -33.859375 19.265625 -33.171875 C 17.515625 -32.484375 16.007812 -31.515625 14.75 -30.265625 C 13.5 -29.015625 12.53125 -27.515625 11.84375 -25.765625 C 11.164062 -24.015625 10.828125 -22.078125 10.828125 -19.953125 C 10.828125 -17.828125 11.164062 -15.890625 11.84375 -14.140625 C 12.53125 -12.390625 13.5 -10.882812 14.75 -9.625 C 16.007812 -8.375 17.515625 -7.40625 19.265625 -6.71875 C 21.015625 -6.039062 22.953125 -5.703125 25.078125 -5.703125 C 26.523438 -5.703125 27.851562 -5.851562 29.0625 -6.15625 C 30.28125 -6.457031 31.328125 -6.816406 32.203125 -7.234375 C 33.234375 -7.691406 34.1875 -8.222656 35.0625 -8.828125 L 38.46875 -3.421875 C 37.375 -2.585938 36.125 -1.828125 34.71875 -1.140625 C 33.5 -0.566406 32.035156 -0.046875 30.328125 0.421875 C 28.617188 0.898438 26.679688 1.140625 24.515625 1.140625 Z M 24.515625 1.140625 "/></g></g></g><g fill="#356cb7" fill-opacity="1"><g transform="translate(191.289525, 57.350027)"><g><path d="M 5.984375 -33.921875 L 1.703125 -33.921875 L 1.703125 -39.90625 L 13.390625 -39.90625 L 13.390625 0 L 5.984375 0 Z M 5.984375 -33.921875 "/></g></g></g><g fill="#356cb7" fill-opacity="1"><g transform="translate(206.447395, 57.350027)"><g><path d="M 18.234375 1.140625 C 15.953125 1.140625 13.832031 0.742188 11.875 -0.046875 C 9.925781 -0.847656 8.238281 -1.941406 6.8125 -3.328125 C 5.382812 -4.722656 4.269531 -6.359375 3.46875 -8.234375 C 2.675781 -10.117188 2.28125 -12.125 2.28125 -14.25 C 2.28125 -16.375 2.675781 -18.375 3.46875 -20.25 C 4.269531 -22.132812 5.382812 -23.769531 6.8125 -25.15625 C 8.238281 -26.550781 9.925781 -27.644531 11.875 -28.4375 C 13.832031 -29.238281 15.953125 -29.640625 18.234375 -29.640625 C 20.515625 -29.640625 22.625 -29.238281 24.5625 -28.4375 C 26.5 -27.644531 28.179688 -26.550781 29.609375 -25.15625 C 31.035156 -23.769531 32.15625 -22.132812 32.96875 -20.25 C 33.789062 -18.375 34.203125 -16.375 34.203125 -14.25 C 34.203125 -12.125 33.789062 -10.117188 32.96875 -8.234375 C 32.15625 -6.359375 31.035156 -4.722656 29.609375 -3.328125 C 28.179688 -1.941406 26.5 -0.847656 24.5625 -0.046875 C 22.625 0.742188 20.515625 1.140625 18.234375 1.140625 Z M 18.234375 -5.125 C 19.378906 -5.125 20.453125 -5.34375 21.453125 -5.78125 C 22.460938 -6.21875 23.335938 -6.832031 24.078125 -7.625 C 24.816406 -8.425781 25.40625 -9.390625 25.84375 -10.515625 C 26.28125 -11.640625 26.5 -12.882812 26.5 -14.25 C 26.5 -15.613281 26.28125 -16.859375 25.84375 -17.984375 C 25.40625 -19.109375 24.816406 -20.066406 24.078125 -20.859375 C 23.335938 -21.660156 22.460938 -22.28125 21.453125 -22.71875 C 20.453125 -23.15625 19.378906 -23.375 18.234375 -23.375 C 17.097656 -23.375 16.023438 -23.15625 15.015625 -22.71875 C 14.015625 -22.28125 13.140625 -21.660156 12.390625 -20.859375 C 11.648438 -20.066406 11.0625 -19.109375 10.625 -17.984375 C 10.1875 -16.859375 9.96875 -15.613281 9.96875 -14.25 C 9.96875 -12.882812 10.1875 -11.640625 10.625 -10.515625 C 11.0625 -9.390625 11.648438 -8.425781 12.390625 -7.625 C 13.140625 -6.832031 14.015625 -6.21875 15.015625 -5.78125 C 16.023438 -5.34375 17.097656 -5.125 18.234375 -5.125 Z M 18.234375 -5.125 "/></g></g></g><g fill="#356cb7" fill-opacity="1"><g transform="translate(240.126019, 57.350027)"><g><path d="M 19.375 1.140625 C 16.945312 1.140625 14.789062 0.816406 12.90625 0.171875 C 11.03125 -0.472656 9.453125 -1.363281 8.171875 -2.5 C 6.898438 -3.644531 5.929688 -4.992188 5.265625 -6.546875 C 4.609375 -8.109375 4.28125 -9.820312 4.28125 -11.6875 L 4.28125 -28.5 L 11.6875 -28.5 L 11.6875 -11.6875 C 11.6875 -9.820312 12.359375 -8.257812 13.703125 -7 C 15.054688 -5.75 16.945312 -5.125 19.375 -5.125 C 20.132812 -5.125 20.894531 -5.160156 21.65625 -5.234375 C 22.414062 -5.316406 23.101562 -5.414062 23.71875 -5.53125 C 24.394531 -5.675781 25.039062 -5.828125 25.65625 -5.984375 L 25.65625 -28.5 L 33.0625 -28.5 L 33.0625 -1.421875 C 31.65625 -0.929688 30.191406 -0.492188 28.671875 -0.109375 C 27.335938 0.191406 25.863281 0.472656 24.25 0.734375 C 22.632812 1.003906 21.007812 1.140625 19.375 1.140625 Z M 19.375 1.140625 "/></g></g></g><g fill="#356cb7" fill-opacity="1"><g transform="translate(274.659449, 57.350027)"><g><path d="M 19.09375 1.140625 C 16.582031 1.140625 14.300781 0.742188 12.25 -0.046875 C 10.195312 -0.847656 8.429688 -1.941406 6.953125 -3.328125 C 5.472656 -4.722656 4.320312 -6.359375 3.5 -8.234375 C 2.6875 -10.117188 2.28125 -12.125 2.28125 -14.25 C 2.28125 -16.375 2.6875 -18.375 3.5 -20.25 C 4.320312 -22.132812 5.472656 -23.769531 6.953125 -25.15625 C 8.429688 -26.550781 10.195312 -27.644531 12.25 -28.4375 C 14.300781 -29.238281 16.582031 -29.640625 19.09375 -29.640625 C 19.738281 -29.640625 20.375 -29.59375 21 -29.5 C 21.625 -29.40625 22.207031 -29.300781 22.75 -29.1875 C 23.351562 -29.03125 23.941406 -28.894531 24.515625 -28.78125 L 24.515625 -39.90625 L 31.921875 -39.90625 L 31.921875 -1.421875 C 30.703125 -0.929688 29.390625 -0.492188 27.984375 -0.109375 C 26.765625 0.191406 25.382812 0.472656 23.84375 0.734375 C 22.3125 1.003906 20.726562 1.140625 19.09375 1.140625 Z M 19.09375 -5.125 C 19.738281 -5.125 20.375 -5.160156 21 -5.234375 C 21.625 -5.316406 22.207031 -5.414062 22.75 -5.53125 C 23.351562 -5.675781 23.941406 -5.828125 24.515625 -5.984375 L 24.515625 -22.515625 C 23.941406 -22.628906 23.351562 -22.757812 22.75 -22.90625 C 22.207031 -23.019531 21.625 -23.125 21 -23.21875 C 20.375 -23.320312 19.738281 -23.375 19.09375 -23.375 C 16.351562 -23.375 14.144531 -22.535156 12.46875 -20.859375 C 10.800781 -19.191406 9.96875 -16.988281 9.96875 -14.25 C 9.96875 -11.507812 10.800781 -9.300781 12.46875 -7.625 C 14.144531 -5.957031 16.351562 -5.125 19.09375 -5.125 Z M 19.09375 -5.125 "/></g></g></g></svg>